HIERARCHY
ROOT Hips
{
  OFFSET 0 0 0
  CHANNELS 6 Xposition Yposition Zposition Zrotation Yrotation Xrotation
  JOINT LeftThigh
  {
    OFFSET 8.409438 0 -5.917753
    CHANNELS 3 Zrotation Yrotation Xrotation
    JOINT LeftLeg
    {
      OFFSET 0 0 -42.358652
      CHANNELS 3 Zrotation Yrotation Xrotation
      JOINT LeftFoot
      {
        OFFSET 0 0 -39.357303
        CHANNELS 3 Zrotation Yrotation Xrotation
      }
    }
  }
  JOINT RightThigh
  {
    OFFSET -8.409438 0 -5.917753
    CHANNELS 3 Zrotation Yrotation Xrotation
    JOINT RightLeg
    {
      OFFSET 0 0 -42.358652
      CHANNELS 3 Zrotation Yrotation Xrotation
      JOINT RightFoot
      {
        OFFSET 0 0 -39.357303
        CHANNELS 3 Zrotation Yrotation Xrotation
      }
    }
  }
  JOINT SpineLow
  {
    OFFSET 0 0 4.719101
    CHANNELS 3 Zrotation Yrotation Xrotation
    JOINT SpineMid
    {
      OFFSET 0 0 12.899191
      CHANNELS 3 Zrotation Yrotation Xrotation
      JOINT Chest
      {
        OFFSET 0 0 12.899191
        CHANNELS 3 Zrotation Yrotation Xrotation
        JOINT LeftShoulder
        {
          OFFSET 7.550562 1.41573 9.438202
          CHANNELS 3 Zrotation Yrotation Xrotation
          JOINT LeftArm
          {
            OFFSET 9.155056 0 4.247191
            CHANNELS 3 Zrotation Yrotation Xrotation
            JOINT LeftForearm
            {
              OFFSET 0 0 25.771955
              CHANNELS 3 Zrotation Yrotation Xrotation
              JOINT LeftHand
              {
                OFFSET 0 0 25.197169
                CHANNELS 3 Zrotation Yrotation Xrotation
              }
            }
          }
        }
        JOINT RightShoulder
        {
          OFFSET -7.550562 1.41573 9.438202
          CHANNELS 3 Zrotation Yrotation Xrotation
          JOINT RightArm
          {
            OFFSET -9.155056 0 4.247191
            CHANNELS 3 Zrotation Yrotation Xrotation
            JOINT RightForearm
            {
              OFFSET 0 0 -25.771955
              CHANNELS 3 Zrotation Yrotation Xrotation
              JOINT RightHand
              {
                OFFSET 0 0 -25.197169
                CHANNELS 3 Zrotation Yrotation Xrotation
              }
            }
          }
        }
        JOINT Neck
        {
          OFFSET 0 0 15.101124
          CHANNELS 3 Zrotation Yrotation Xrotation
          JOINT Head
          {
            OFFSET 0 0 11.325843
            CHANNELS 3 Zrotation Yrotation Xrotation
            End Site
            {
              OFFSET 0 0 14.157303
            }
          }
        }
      }
    }
  }
}
MOTION
Frames: 5
Frame Time: 0.0
0.0  101.685394  0.0  2.898856  41.246908  -97.206934  -5.901472  -15.908477  0.438564  -22.925963  10.554132  16.639725  2.457043  2.416129  4.597837  -30.184067  17.478067  0.453461  -21.116315  10.015105  17.95004  4.984015  6.715016  -2.752683  -0.309307  0.81937  2.149531  -0.772163  2.265078  5.86705  -0.772163  2.265078  5.86705  0.973531  23.715685  5.726958  144.17966  42.900736  -164.920113  -13.665716  -48.119097  119.8897  105.45026  19.723263  -37.049939  20.078783  -8.824513  17.949634  66.02636  58.969488  -9.445044  -80.977764  60.927099  -95.08477  77.994258  13.425927  33.581515  -8.255485  -1.728881  -2.449357  -6.19819  -1.263872  -1.860642  
0.0  101.685394  0.0  3.047847  41.959854  -96.95661  -6.973016  -15.824549  -0.1051  -23.371606  11.012442  16.847471  3.088325  2.575103  4.842282  -30.184127  17.37139  0.349716  -22.121288  10.33299  18.083374  4.910862  6.887394  -2.852911  -0.386453  0.853777  2.142546  -0.980143  2.365772  5.844913  -0.980143  2.365772  5.844913  0.842849  23.789054  5.686824  144.236514  43.606066  -164.708622  -13.450281  -47.796871  119.625107  105.446335  19.766941  -36.841615  20.32018  -8.875454  17.763822  65.098718  59.128263  -9.86947  -80.153585  60.494426  -94.522525  77.997371  13.480741  33.248618  -8.483661  -1.805906  -2.645028  -6.370176  -1.318043  -2.009143  
0.0  101.685394  0.0  2.999054  42.383428  -96.915304  -7.734298  -15.916178  -0.559126  -23.633432  11.512398  17.324692  3.504033  2.692116  4.898429  -29.881766  17.18528  0.374159  -22.69698  10.622848  18.348698  4.767542  7.073779  -2.926121  -0.419867  0.859215  2.151966  -1.07061  2.383714  5.869398  -1.07061  2.383714  5.869399  0.659751  23.94307  5.754363  144.086772  44.174859  -164.508419  -13.255422  -47.947612  119.250984  105.501888  19.867706  -36.721359  20.257632  -8.798565  17.505459  65.005463  59.074145  -10.201059  -80.04487  60.578473  -94.398703  78.14852  13.55742  33.051307  -8.515684  -1.928586  -2.811902  -6.395193  -1.407618  -2.136102  
0.0  101.685394  0.0  3.031317  43.055826  -96.775548  -8.708535  -15.927485  -1.184122  -23.96977  12.097781  17.835389  4.032778  2.831154  5.025794  -30.038965  17.141037  0.199395  -23.365876  10.853688  18.637505  4.832944  7.330762  -2.985795  -0.480761  0.872448  2.142076  -1.236177  2.425069  5.839946  -1.236177  2.425069  5.839946  0.525085  24.036995  5.985219  143.866911  44.780835  -164.300385  -12.932371  -48.105307  118.800766  105.638406  19.998944  -36.720067  20.148344  -8.804724  17.328691  64.90825  59.048921  -10.443878  -79.666972  60.542106  -94.114173  78.305672  13.65498  32.905685  -8.824587  -2.007465  -2.972112  -6.627712  -1.463086  -2.258413  
0.0  101.685394  0.0  2.902146  43.42747  -96.787693  -9.320658  -16.058595  -1.730223  -24.044357  12.606234  18.570589  4.271739  2.956  5.010214  -29.8312  16.939353  0.11851  -23.594338  11.111039  19.050145  4.669254  7.540309  -3.037333  -0.506694  0.869524  2.13923  -1.307391  2.419316  5.831247  -1.307391  2.419315  5.831247  0.324407  24.166274  6.226711  143.666071  45.50458  -164.154641  -12.518222  -48.255443  118.300128  105.768175  20.171588  -36.843854  19.92707  -8.759148  17.110916  65.045456  58.986472  -10.620224  -79.509318  60.557113  -93.97669  78.442026  13.735505  32.767235  -8.941569  -2.163152  -3.093794  -6.716535  -1.577549  -2.352332  
